Coordinates
version=1
nRows=6
nColumns=36
inDegrees=yes

Units are S.I. units (second, meters, Newtons, ...)
If the header above contains a line with 'inDegrees', this indicates whether rotational values are in degrees (yes) or radians (no).

endheader
time	pelvis_tilt	pelvis_list	pelvis_rotation	pelvis_tx	pelvis_ty	pelvis_tz	hip_flexion_r	hip_adduction_r	hip_rotation_r	knee_angle_r	knee_angle_r_beta	ankle_angle_r	subtalar_angle_r	mtp_angle_r	hip_flexion_l	hip_adduction_l	hip_rotation_l	knee_angle_l	knee_angle_l_beta	ankle_angle_l	subtalar_angle_l	mtp_angle_l	lumbar_extension	lumbar_bending	lumbar_rotation	arm_flex_r	arm_add_r	arm_rot_r	elbow_flex_r	pro_sup_r	arm_flex_l	arm_add_l	arm_rot_l	elbow_flex_l	pro_sup_l
      1.22000000	    -11.26746633	     -1.76213047	     -4.21998961	     -0.52034061	      1.30425552	     -0.56348367	     40.98711284	     -6.95289655	     -4.89827437	     25.26174493	      0.44090062	    -20.81355769	      0.81360544	     -6.43736253	     38.69284900	    -14.47149327	     -8.58481916	     24.86994139	      0.43406236	    -29.39757086	     -8.47260555	     -6.43736253	    -29.89462359	     -3.94584841	     -4.01728832	    -52.00372548	    -22.88571836	    -20.13471044	    105.13994596	    110.25641307	    -45.31853596	    -28.27631635	    -19.59276630	    115.77800661	    106.91159142
      1.23000000	    -10.69471132	     -1.85030107	     -4.24437424	     -0.50956325	      1.28197134	     -0.56341154	     41.04102521	     -6.94586766	     -4.36976275	     26.06125828	      0.45485476	    -22.22051162	     -0.83165104	     -6.48504278	     38.45144763	    -14.48370737	     -7.81536360	     25.17467293	      0.43938093	    -29.38194687	     -9.79586051	     -6.48504278	    -30.28168724	     -3.88579476	     -4.20609355	    -51.13959381	    -21.52789632	    -19.89576935	    104.35670465	    109.84925904	    -44.19507738	    -26.84052070	    -19.38545944	    115.17527981	    106.24407920
      1.24000000	    -10.18261893	     -1.75417530	     -4.36126300	     -0.49894015	      1.25868436	     -0.56322963	     41.37770164	     -7.04811767	     -3.72856868	     27.30056857	      0.47648481	    -23.69416092	     -2.64770221	     -6.55486416	     38.40246540	    -14.38873880	     -7.11642178	     25.92217178	      0.45242725	    -29.89805854	    -10.95521329	     -6.55486416	    -30.55975809	     -4.06314989	     -4.32743950	    -49.92082590	    -19.99909532	    -19.76666773	    103.33205416	    109.83017053	    -42.70328010	    -25.58914643	    -19.08039523	    114.37246898	    106.14395248
      1.25000000	     -9.70782222	     -1.52438597	     -4.49834830	     -0.48863757	      1.23425072	     -0.56306848	     41.97963153	     -7.26940800	     -3.09234182	     28.99650301	      0.50608445	    -24.84477828	     -4.39108025	     -6.60737085	     38.55002521	    -14.18743892	     -6.45801116	     27.08210361	      0.47267188	    -30.74672579	    -11.77133223	     -6.60737085	    -30.78034551	     -4.38769250	     -4.49147656	    -48.37699248	    -18.38787344	    -19.67436643	    102.33611036	    109.46862392	    -40.95392253	    -24.45696460	    -18.76484552	    113.57763825	    106.13662000
      1.26000000	     -9.34001439	     -1.43828943	     -4.54557850	     -0.47858380	      1.20822911	     -0.56305258	     42.84481541	     -7.46764770	     -2.69257444	     31.27888854	      0.54591959	    -24.51245197	     -5.16512933	     -6.65317953	     39.15203949	    -14.11326905	     -5.67971189	     28.85957669	      0.50369463	    -30.91786594	    -11.04528808	     -6.65317953	    -30.86541589	     -4.53755898	     -4.66966935	    -46.60961623	    -16.83956961	    -19.64208408	    101.40343857	    108.08733685	    -39.07276709	    -23.31522195	    -18.56069912	    113.05393691	    105.05942648
      1.27000000	     -9.16057514	     -1.39789110	     -4.62392522	     -0.46858382	      1.18077528	     -0.56297564	     44.01273888	     -7.46211839	     -1.98330417	     33.88863109	      0.59146819	    -24.74498815	     -7.21192747	     -6.70375948	     40.08749125	    -14.05820683	     -4.96151199	     30.72249152	      0.53620863	    -32.31774176	    -11.07134848	     -6.70375948	    -30.69184288	     -4.57357615	     -4.58230928	    -44.75949824	    -15.21065390	    -19.93065202	    100.43567657	    107.88612795	    -36.80071823	    -22.59079041	    -17.90038235	    112.01634658	    105.34029971
